<svg width="21" height="21" viewBox="0 0 21 21" fill="none" xmlns="http://www.w3.org/2000/svg">
<path d="M18.2062 18.6914H2.36058V2.84575H18.2062M18.2062 0.582092H2.36058C1.76022 0.582092 1.18445 0.820584 0.759934 1.2451C0.335416 1.66962 0.0969238 2.24539 0.0969238 2.84575V18.6914C0.0969238 19.2917 0.335416 19.8675 0.759934 20.292C1.18445 20.7165 1.76022 20.955 2.36058 20.955H18.2062C18.8066 20.955 19.3823 20.7165 19.8069 20.292C20.2314 19.8675 20.4699 19.2917 20.4699 18.6914V2.84575C20.4699 2.24539 20.2314 1.66962 19.8069 1.2451C19.3823 0.820584 18.8066 0.582092 18.2062 0.582092ZM15.3766 15.5788C15.3766 13.8811 11.9811 13.0322 10.2834 13.0322C8.58565 13.0322 5.19016 13.8811 5.19016 15.5788V16.4277H15.3766M10.2834 11.0515C10.9588 11.0515 11.6065 10.7832 12.0841 10.3056C12.5617 9.82805 12.83 9.18031 12.83 8.5049C12.83 7.8295 12.5617 7.18176 12.0841 6.70417C11.6065 6.22659 10.9588 5.95829 10.2834 5.95829C9.60799 5.95829 8.96025 6.22659 8.48267 6.70417C8.00508 7.18176 7.73678 7.8295 7.73678 8.5049C7.73678 9.18031 8.00508 9.82805 8.48267 10.3056C8.96025 10.7832 9.60799 11.0515 10.2834 11.0515Z" fill="white"/>
</svg>
