<svg width="32" height="25" viewBox="0 0 32 25" fill="none" xmlns="http://www.w3.org/2000/svg">
<path d="M29.3844 1H2.86358C2.36117 1 1.87934 1.20486 1.52408 1.56951C1.16882 1.93417 0.969238 2.42875 0.969238 2.94444V22.3889C0.969238 22.9046 1.16882 23.3992 1.52408 23.7638C1.87934 24.1285 2.36117 24.3333 2.86358 24.3333H29.3844C29.8868 24.3333 30.3687 24.1285 30.7239 23.7638C31.0792 23.3992 31.2787 22.9046 31.2787 22.3889V2.94444C31.2787 2.42875 31.0792 1.93417 30.7239 1.56951C30.3687 1.20486 29.8868 1 29.3844 1ZM27.9258 22.3889H4.43589L11.0661 15.35L9.70217 13.9986L2.86358 21.2611V4.42222L14.6369 16.4486C14.9919 16.8108 15.472 17.014 15.9724 17.014C16.4729 17.014 16.953 16.8108 17.308 16.4486L29.3844 4.12083V21.1347L22.4132 13.9792L21.0777 15.35L27.9258 22.3889ZM4.10438 2.94444H27.85L15.9724 15.0681L4.10438 2.94444Z" fill="white" stroke="white"/>
</svg>
