<svg width="31" height="31" viewBox="0 0 31 31" fill="none" xmlns="http://www.w3.org/2000/svg">
<path d="M9.08179 0H21.9027C26.7869 0 30.7553 4.03 30.7553 8.99V22.01C30.7553 24.3943 29.8226 26.6809 28.1624 28.3669C26.5022 30.0528 24.2506 31 21.9027 31H9.08179C4.19763 31 0.229248 26.97 0.229248 22.01V8.99C0.229248 6.6057 1.16192 4.31906 2.8221 2.63311C4.48227 0.947158 6.73395 0 9.08179 0ZM8.77653 3.1C7.31925 3.1 5.92166 3.68789 4.8912 4.73434C3.86075 5.7808 3.28185 7.20009 3.28185 8.68V22.32C3.28185 25.4045 5.73919 27.9 8.77653 27.9H22.208C23.6653 27.9 25.0628 27.3121 26.0933 26.2657C27.1238 25.2192 27.7027 23.7999 27.7027 22.32V8.68C27.7027 5.5955 25.2453 3.1 22.208 3.1H8.77653ZM23.5053 5.425C24.0113 5.425 24.4966 5.62913 24.8544 5.99248C25.2122 6.35583 25.4132 6.84864 25.4132 7.3625C25.4132 7.87636 25.2122 8.36917 24.8544 8.73252C24.4966 9.09587 24.0113 9.3 23.5053 9.3C22.9993 9.3 22.5141 9.09587 22.1563 8.73252C21.7985 8.36917 21.5975 7.87636 21.5975 7.3625C21.5975 6.84864 21.7985 6.35583 22.1563 5.99248C22.5141 5.62913 22.9993 5.425 23.5053 5.425ZM15.4923 7.75C17.5163 7.75 19.4574 8.56651 20.8885 10.0199C22.3197 11.4733 23.1238 13.4446 23.1238 15.5C23.1238 17.5554 22.3197 19.5267 20.8885 20.9801C19.4574 22.4335 17.5163 23.25 15.4923 23.25C13.4683 23.25 11.5272 22.4335 10.096 20.9801C8.66478 19.5267 7.86075 17.5554 7.86075 15.5C7.86075 13.4446 8.66478 11.4733 10.096 10.0199C11.5272 8.56651 13.4683 7.75 15.4923 7.75ZM15.4923 10.85C14.2779 10.85 13.1132 11.3399 12.2545 12.212C11.3958 13.084 10.9134 14.2667 10.9134 15.5C10.9134 16.7333 11.3958 17.916 12.2545 18.788C13.1132 19.6601 14.2779 20.15 15.4923 20.15C16.7067 20.15 17.8713 19.6601 18.73 18.788C19.5887 17.916 20.0712 16.7333 20.0712 15.5C20.0712 14.2667 19.5887 13.084 18.73 12.212C17.8713 11.3399 16.7067 10.85 15.4923 10.85Z" fill="white"/>
</svg>
